<?xml version="1.0" standalone="no"?>
<!DOCTYPE svg PUBLIC "-//W3C//DTD SVG 20010904//EN"
 "http://www.w3.org/TR/2001/REC-SVG-20010904/DTD/svg10.dtd">
<svg version="1.0" xmlns="http://www.w3.org/2000/svg"
 width="512.000000pt" height="512.000000pt" viewBox="0 0 512.000000 512.000000"
 preserveAspectRatio="xMidYMid meet">
<metadata>
Created by potrace 1.14, written by Peter Selinger 2001-2017
</metadata>
<g transform="translate(0.000000,512.000000) scale(0.100000,-0.100000)"
fill="#000000" stroke="none">
<path d="M2379 5116 c-2 -2 -35 -6 -74 -10 -187 -16 -414 -67 -616 -139 -696
-248 -1268 -813 -1527 -1512 -83 -224 -125 -406 -152 -665 -8 -82 -5 -463 5
-520 3 -19 13 -78 21 -130 78 -488 313 -966 650 -1322 47 -50 78 -64 113 -53
28 9 54 60 45 88 -4 12 -43 65 -88 117 -306 355 -486 726 -565 1168 -45 251
-48 588 -6 812 3 14 7 41 10 60 12 73 66 269 99 362 120 334 308 631 561 883
119 119 145 142 250 222 506 384 1139 550 1785 467 36 -4 170 -30 263 -49 107
-23 340 -111 486 -184 534 -267 959 -737 1170 -1294 128 -338 178 -697 148
-1072 -8 -95 -8 -100 -33 -233 -160 -876 -826 -1612 -1684 -1860 -237 -69
-427 -96 -675 -95 -236 0 -376 17 -595 72 -247 61 -507 175 -720 314 -144 94
-160 99 -200 58 -25 -24 -29 -35 -24 -58 10 -40 16 -46 113 -109 335 -221 726
-370 1076 -409 33 -4 74 -9 90 -12 57 -9 420 -11 490 -2 39 5 90 11 115 14 25
3 56 7 70 10 14 3 40 7 58 10 138 23 370 93 527 160 655 280 1175 835 1410
1506 20 57 38 113 41 123 2 10 8 33 14 51 6 18 12 41 14 51 3 10 13 64 25 119
36 176 45 280 46 500 0 219 -10 337 -45 505 -6 30 -14 66 -16 80 -11 55 -67
238 -101 329 -266 712 -867 1285 -1599 1525 -44 15 -91 28 -104 31 -12 2 -37
9 -54 14 -40 13 -217 48 -281 56 -27 4 -61 9 -75 11 -28 6 -456 15 -461 10z"/>
<path d="M2508 4655 c-2 -1 -48 -5 -103 -9 -55 -3 -111 -8 -125 -11 -14 -3
-38 -7 -55 -10 -120 -18 -191 -39 -217 -62 -41 -37 -7 -123 48 -123 14 0 69 9
122 19 54 11 118 22 144 26 l48 6 -139 -228 c-76 -126 -196 -323 -266 -439
l-128 -211 -448 0 c-247 0 -449 2 -449 5 0 2 32 47 72 100 170 226 388 414
641 552 82 45 108 77 98 120 -4 13 -21 33 -40 43 l-32 20 -82 -41 c-308 -152
-620 -443 -819 -764 -139 -223 -252 -536 -292 -808 -24 -161 -25 -455 -2 -575
2 -11 7 -40 10 -65 3 -25 10 -60 15 -78 5 -18 10 -36 10 -40 7 -69 50 -205
119 -372 130 -315 367 -621 652 -841 254 -196 544 -331 849 -395 81 -17 84
-17 176 -29 33 -4 74 -9 90 -11 40 -5 334 -5 360 0 11 2 47 7 80 10 91 11 112
15 220 41 384 91 722 281 1005 565 307 307 503 674 587 1100 3 14 6 32 8 40 2
8 6 44 10 80 4 36 9 76 11 90 5 29 5 299 0 350 -67 700 -460 1314 -1066 1666
-211 123 -492 222 -715 253 -38 6 -86 13 -105 16 -36 5 -287 14 -292 10z m132
-247 c30 -51 66 -111 80 -135 48 -82 314 -519 357 -585 24 -38 42 -69 40 -70
-5 -3 -1097 -5 -1097 -1 0 2 69 117 153 256 85 138 205 336 268 440 69 114
119 187 129 187 8 0 39 -41 70 -92z m315 57 c382 -73 737 -265 1017 -548 90
-92 238 -274 238 -295 0 -5 -186 -9 -455 -9 l-455 0 -222 366 c-123 201 -225
370 -227 376 -2 5 -9 17 -16 25 -7 8 -25 37 -40 64 l-28 48 54 -6 c30 -3 90
-12 134 -21z m-1231 -1037 c-10 -18 -25 -44 -35 -58 -9 -14 -104 -168 -209
-342 -106 -175 -195 -318 -198 -318 -6 0 -190 296 -273 438 -9 15 -52 86 -96
157 -44 72 -78 136 -75 143 3 9 107 12 453 12 l450 0 -17 -32z m1568 -95 c42
-71 140 -231 217 -358 239 -393 253 -416 246 -433 -3 -8 -128 -217 -277 -464
l-271 -448 -637 0 -637 0 -278 457 c-153 251 -278 462 -278 467 0 6 123 212
273 459 l272 447 647 0 646 0 77 -127z m1008 112 c0 -8 -86 -155 -191 -327
-105 -172 -196 -322 -202 -333 -7 -11 -21 -34 -32 -51 l-21 -32 -189 311
c-105 172 -195 321 -201 333 -6 12 -23 39 -38 60 -14 21 -26 42 -26 46 0 5
203 8 450 8 387 0 450 -2 450 -15z m129 -257 c38 -113 74 -263 92 -383 14 -98
18 -410 5 -490 -4 -27 -10 -66 -12 -85 -9 -67 -54 -246 -86 -333 l-31 -89 -17
29 c-174 284 -415 682 -422 699 -9 20 1 42 77 166 48 79 95 154 104 168 8 14
22 37 31 52 61 107 216 357 221 358 3 0 20 -42 38 -92z m-3455 -276 c108 -178
201 -332 206 -342 9 -16 -26 -80 -210 -381 -120 -199 -221 -356 -224 -348 -2
8 -15 48 -30 90 -26 78 -63 227 -71 288 -3 20 -7 52 -10 71 -19 123 -19 393
-1 496 3 18 8 52 11 75 9 69 43 205 77 307 25 75 34 91 44 80 6 -7 100 -158
208 -336z m471 -774 c88 -145 165 -272 171 -283 6 -11 33 -56 61 -100 27 -44
55 -90 62 -102 l12 -23 -456 0 c-390 0 -456 2 -461 15 -3 8 67 134 166 297 95
156 196 322 224 370 28 48 53 87 56 88 3 0 77 -118 165 -262z m2644 -117 c122
-200 221 -370 221 -377 0 -12 -80 -14 -460 -14 -441 0 -459 1 -452 18 19 49
456 752 462 745 5 -4 107 -172 229 -372z m-2008 -928 c129 -212 241 -397 249
-411 9 -15 24 -40 34 -55 10 -15 16 -30 14 -33 -3 -3 -50 2 -104 11 -415 66
-793 260 -1089 560 -98 99 -249 290 -241 303 3 5 207 9 454 9 l449 0 234 -384z
m2139 378 c0 -4 -31 -48 -69 -98 -277 -370 -659 -624 -1100 -733 -124 -31
-153 -36 -244 -46 l-58 -6 112 184 c318 520 302 489 274 531 -9 14 -25 29 -36
32 -30 10 -72 -4 -90 -28 -8 -12 -109 -176 -223 -365 -115 -189 -213 -341
-219 -339 -10 3 -223 342 -274 435 -10 18 -73 123 -140 233 -68 110 -123 201
-123 203 0 1 493 3 1095 3 602 0 1095 -3 1095 -6z"/>
<path d="M2484 3290 c-25 -13 -156 -137 -351 -333 -323 -325 -323 -325 -323
-409 0 -16 7 -43 16 -61 25 -49 612 -634 660 -657 51 -25 97 -25 148 0 57 27
640 612 661 662 19 47 19 89 0 136 -19 44 -575 608 -644 653 -54 35 -108 38
-167 9z m381 -430 l300 -300 -303 -303 -302 -302 -302 302 -303 303 300 300
c165 165 302 300 305 300 3 0 140 -135 305 -300z"/>
<path d="M2484 2820 c-105 -33 -182 -132 -192 -245 -4 -59 -2 -71 28 -131 51
-104 136 -155 252 -150 151 5 260 124 254 277 -4 103 -60 190 -151 233 -45 22
-146 30 -191 16z m153 -174 c13 -11 28 -37 34 -59 22 -83 -59 -163 -141 -138
-49 14 -82 59 -84 111 -2 96 117 150 191 86z"/>
</g>
</svg>
